# xmcd CD database file
#
# Track frame offsets:
#	150
#	16872
#	41386
#	60619
#	81164
#	103012
#	122851
#	148993
#	170416
#	192176
#	214132
#	234269
#	260166
#	279077
#	297224
#
# Disc length: 4222 seconds
#
# Revision: 2
# Processed by: cddbd v1.5.2PL0 Copyright (c) Steve Scherf et al.
# Submitted via: CDex 1.70beta3
#
DISCID=d7107c0f
DTITLE=GRAPEVINE - Best of GRAPEVINE 1997-2012  (Disc-2)
DYEAR=1900
DGENRE=blues
TTITLE0=真昼の子供たち
TTITLE1=Glare
TTITLE2=放浪フリーク
TTITLE3=Darlin' from hell
TTITLE4=RAKUEN
TTITLE5=小宇宙
TTITLE6=CORE
TTITLE7=GRAVEYARD
TTITLE8=指先
TTITLE9=Silverado
TTITLE10=エレウテリア
TTITLE11=豚の皿
TTITLE12=超える
TTITLE13=棘に毒
TTITLE14=FLY
EXTD=
EXTT0=
EXTT1=
EXTT2=
EXTT3=
EXTT4=
EXTT5=
EXTT6=
EXTT7=
EXTT8=
EXTT9=
EXTT10=
EXTT11=
EXTT12=
EXTT13=
EXTT14=
PLAYORDER=
